<svg width="30" height="30" viewBox="0 0 30 30" fill="none" xmlns="http://www.w3.org/2000/svg">
    <path
        d="M16.3174 1.31756C16.3174 0.589893 15.7276 0 15 0C14.2724 0 13.6826 0.589893 13.6826 1.31756V6.35703C13.6826 7.0847 14.2724 7.67459 15 7.67459C15.7276 7.67459 16.3174 7.0847 16.3174 6.35703V1.31756Z"
        fill="#2A2A2A" />
    <path
        d="M9.29995 2.49217C8.93612 1.86199 8.13037 1.64603 7.50027 2.00982C6.87017 2.37361 6.65432 3.17938 7.01816 3.80956L9.53789 8.17386C9.90172 8.80404 10.7075 9.02 11.3376 8.65621C11.9677 8.29242 12.1835 7.48665 11.8197 6.85647L9.29995 2.49217Z"
        fill="#3A3A3A" />
    <path
        d="M3.80951 7.01773C3.17933 6.6539 2.37356 6.86975 2.00977 7.49985C1.64598 8.12995 1.86194 8.93569 2.49212 9.29953L6.85642 11.8193C7.4866 12.1831 8.29237 11.9672 8.65616 11.3371C9.01995 10.707 8.804 9.9013 8.17382 9.53747L3.80951 7.01773Z"
        fill="#4C4C4C" />
    <path
        d="M1.31756 13.6826C0.589892 13.6826 0 14.2724 0 15C0 15.7276 0.589892 16.3174 1.31756 16.3174H6.35703C7.0847 16.3174 7.67459 15.7276 7.67459 15C7.67459 14.2724 7.0847 13.6826 6.35703 13.6826H1.31756Z"
        fill="#5B5B5B" />
    <path
        d="M2.4921 20.7002C1.86192 21.064 1.64597 21.8697 2.00976 22.4999C2.37355 23.13 3.17932 23.3458 3.8095 22.982L8.17381 20.4622C8.80399 20.0984 9.01994 19.2927 8.65615 18.6626C8.29236 18.0325 7.48659 17.8166 6.85641 18.1804L2.4921 20.7002Z"
        fill="#6B6B6B" />
    <path
        d="M7.0181 26.1909C6.65426 26.821 6.87012 27.6268 7.50022 27.9906C8.13032 28.3544 8.93606 28.1384 9.29989 27.5082L11.8196 23.1439C12.1835 22.5138 11.9676 21.708 11.3375 21.3442C10.7074 20.9804 9.90167 21.1964 9.53783 21.8265L7.0181 26.1909Z"
        fill="#7D7D7D" />
    <path
        d="M13.6826 28.6824C13.6826 29.4101 14.2724 30 15 30C15.7276 30 16.3174 29.4101 16.3174 28.6824V23.643C16.3174 22.9153 15.7276 22.3254 15 22.3254C14.2724 22.3254 13.6826 22.9153 13.6826 23.643V28.6824Z"
        fill="#8C8C8C" />
    <path
        d="M20.7005 27.5083C21.0644 28.1384 21.8701 28.3544 22.5002 27.9906C23.1303 27.6268 23.3462 26.821 22.9823 26.1909L20.4626 21.8266C20.0988 21.1964 19.293 20.9804 18.6629 21.3442C18.0328 21.708 17.817 22.5138 18.1808 23.144L20.7005 27.5083Z"
        fill="#9B9B9B" />
    <path
        d="M26.1905 22.9818C26.8207 23.3457 27.6264 23.1298 27.9902 22.4997C28.354 21.8696 28.1381 21.0639 27.5079 20.7L23.1436 18.1803C22.5134 17.8165 21.7076 18.0323 21.3438 18.6624C20.98 19.2925 21.196 20.0983 21.8262 20.4621L26.1905 22.9818Z"
        fill="#ACACAC" />
    <path
        d="M28.6824 16.3174C29.4101 16.3174 30 15.7276 30 15C30 14.2724 29.4101 13.6826 28.6824 13.6826H23.643C22.9153 13.6826 22.3254 14.2724 22.3254 15C22.3254 15.7276 22.9153 16.3174 23.643 16.3174H28.6824Z"
        fill="#BBBBBB" />
    <path
        d="M27.5079 9.29977C28.1381 8.93593 28.354 8.13019 27.9902 7.50009C27.6265 6.86999 26.8207 6.65414 26.1905 7.01797L21.8262 9.53771C21.196 9.90154 20.9801 10.7073 21.3439 11.3374C21.7076 11.9675 22.5134 12.1833 23.1436 11.8195L27.5079 9.29977Z"
        fill="#CDCDCD" />
    <path
        d="M22.9819 3.80927C23.3457 3.17909 23.1299 2.37332 22.4998 2.00953C21.8697 1.64574 21.0639 1.86169 20.7001 2.49187L18.1804 6.85618C17.8165 7.48636 18.0324 8.29213 18.6625 8.65592C19.2926 9.01971 20.0983 8.80375 20.4622 8.17357L22.9819 3.80927Z"
        fill="#DDDDDD" />
</svg>